<svg width="1200" height="900" viewBox="0 0 1200 900" fill="none" xmlns="http://www.w3.org/2000/svg">
<path d="M459.737 396.993C459.737 404.905 460.592 411.321 462.089 416.025C463.799 420.73 465.937 425.862 468.931 431.422C470 433.133 470.428 434.843 470.428 436.34C470.428 438.479 469.145 440.617 466.365 442.756L452.895 451.737C450.97 453.02 449.046 453.662 447.335 453.662C445.197 453.662 443.059 452.593 440.921 450.668C437.928 447.46 435.362 444.039 433.224 440.617C431.085 436.982 428.947 432.919 426.595 428C409.918 447.674 388.964 457.511 363.733 457.511C345.773 457.511 331.447 452.379 320.97 442.114C310.493 431.85 305.148 418.164 305.148 401.056C305.148 382.879 311.562 368.124 324.605 357.004C337.648 345.884 354.967 340.324 376.99 340.324C384.26 340.324 391.743 340.966 399.655 342.035C407.566 343.104 415.691 344.815 424.243 346.739V331.129C424.243 314.877 420.822 303.543 414.194 296.914C407.352 290.284 395.806 287.077 379.342 287.077C371.858 287.077 364.161 287.932 356.25 289.857C348.339 291.781 340.641 294.134 333.158 297.127C329.737 298.624 327.171 299.48 325.674 299.907C324.178 300.335 323.108 300.549 322.253 300.549C319.26 300.549 317.763 298.41 317.763 293.92V283.441C317.763 280.02 318.191 277.454 319.26 275.957C320.329 274.46 322.253 272.963 325.247 271.466C332.73 267.617 341.71 264.409 352.187 261.843C362.664 259.063 373.783 257.78 385.543 257.78C410.987 257.78 429.589 263.554 441.562 275.101C453.322 286.649 459.309 304.184 459.309 327.707V396.993H459.737ZM372.928 429.497C379.983 429.497 387.253 428.214 394.951 425.648C402.648 423.082 409.49 418.377 415.263 411.962C418.684 407.899 421.25 403.408 422.533 398.276C423.816 393.144 424.671 386.942 424.671 379.672V370.69C418.47 369.193 411.842 367.91 405 367.055C398.158 366.199 391.53 365.772 384.901 365.772C370.576 365.772 360.099 368.552 353.043 374.325C345.987 380.099 342.566 388.225 342.566 398.918C342.566 408.968 345.131 416.453 350.477 421.585C355.608 426.931 363.092 429.497 372.928 429.497ZM544.622 452.593C540.773 452.593 538.207 451.951 536.497 450.454C534.786 449.171 533.289 446.177 532.006 442.114L481.76 276.812C480.477 272.535 479.835 269.755 479.835 268.258C479.835 264.837 481.546 262.912 484.967 262.912H505.921C509.983 262.912 512.763 263.554 514.26 265.051C515.97 266.334 517.253 269.328 518.536 273.391L554.457 414.956L587.812 273.391C588.881 269.114 590.164 266.334 591.875 265.051C593.585 263.768 596.579 262.912 600.427 262.912H617.533C621.595 262.912 624.375 263.554 626.085 265.051C627.796 266.334 629.293 269.328 630.148 273.391L663.931 416.667L700.921 273.391C702.204 269.114 703.701 266.334 705.197 265.051C706.908 263.768 709.687 262.912 713.536 262.912H733.421C736.842 262.912 738.766 264.623 738.766 268.258C738.766 269.328 738.552 270.397 738.339 271.68C738.125 272.963 737.697 274.674 736.842 277.026L685.312 442.328C684.029 446.605 682.533 449.385 680.822 450.668C679.112 451.951 676.332 452.806 672.697 452.806H654.309C650.247 452.806 647.467 452.165 645.756 450.668C644.046 449.171 642.549 446.391 641.694 442.114L608.553 304.184L575.625 441.9C574.556 446.177 573.273 448.957 571.562 450.454C569.852 451.951 566.858 452.593 563.01 452.593H544.622ZM819.375 458.366C808.256 458.366 797.138 457.083 786.447 454.517C775.756 451.951 767.418 449.171 761.858 445.963C758.437 444.039 756.085 441.9 755.23 439.976C754.375 438.051 753.947 435.913 753.947 433.988V423.082C753.947 418.591 755.658 416.453 758.865 416.453C760.148 416.453 761.431 416.667 762.714 417.094C763.997 417.522 765.921 418.377 768.059 419.233C775.329 422.44 783.24 425.007 791.579 426.717C800.131 428.428 808.47 429.283 817.023 429.283C830.493 429.283 840.97 426.931 848.24 422.227C855.51 417.522 859.358 410.679 859.358 401.911C859.358 395.924 857.434 391.005 853.585 386.942C849.737 382.879 842.467 379.244 831.99 375.822L800.987 366.199C785.378 361.281 773.832 354.01 766.776 344.387C759.72 334.978 756.085 324.5 756.085 313.38C756.085 304.398 758.01 296.486 761.858 289.643C765.707 282.8 770.839 276.812 777.253 272.108C783.668 267.189 790.937 263.554 799.49 260.988C808.043 258.422 817.023 257.352 826.431 257.352C831.135 257.352 836.052 257.566 840.756 258.208C845.674 258.849 850.164 259.705 854.654 260.56C858.931 261.629 862.993 262.698 866.842 263.981C870.691 265.265 873.684 266.548 875.822 267.831C878.816 269.541 880.954 271.252 882.237 273.177C883.52 274.888 884.161 277.24 884.161 280.234V290.284C884.161 294.775 882.451 297.127 879.243 297.127C877.533 297.127 874.753 296.272 871.118 294.561C858.931 289.001 845.247 286.221 830.066 286.221C817.878 286.221 808.256 288.146 801.628 292.209C795 296.272 791.579 302.474 791.579 311.241C791.579 317.229 793.717 322.361 797.993 326.424C802.27 330.487 810.181 334.55 821.513 338.186L851.875 347.809C867.27 352.727 878.388 359.57 885.016 368.338C891.645 377.105 894.852 387.156 894.852 398.276C894.852 407.471 892.927 415.811 889.293 423.082C885.444 430.353 880.312 436.768 873.684 441.9C867.056 447.246 859.145 451.096 849.95 453.876C840.329 456.869 830.279 458.366 819.375 458.366Z" fill="#252F3E"/>
<path fill-rule="evenodd" clip-rule="evenodd" d="M859.786 562.295C789.441 614.259 687.237 641.845 599.359 641.845C476.201 641.845 365.23 596.296 281.414 520.595C274.786 514.608 280.773 506.481 288.684 511.186C379.342 563.792 491.168 595.655 606.842 595.655C684.885 595.655 770.625 579.403 849.523 546.043C861.283 540.697 871.332 553.741 859.786 562.295Z" fill="#FF9900"/>
<path fill-rule="evenodd" clip-rule="evenodd" d="M889.079 528.935C880.099 517.388 829.638 523.375 806.76 526.155C799.918 527.011 798.849 521.023 805.049 516.532C845.247 488.305 911.316 496.431 919.013 505.84C926.711 515.463 916.875 581.541 879.243 613.19C873.47 618.108 867.911 615.542 870.477 609.127C879.03 587.956 898.059 540.269 889.079 528.935Z" fill="#FF9900"/>
</svg>
